<?xml version="1.0" standalone="yes"?>

<svg version="1.1" viewBox="0.0 0.0 866.0 256.0" fill="none" stroke="none" stroke-linecap="square" stroke-miterlimit="10" xmlns="http://www.w3.org/2000/svg" xmlns:xlink="http://www.w3.org/1999/xlink"><clipPath id="p.0"><path d="m0 0l866.0 0l0 256.0l-866.0 0l0 -256.0z" clip-rule="nonzero"></path></clipPath><g clip-path="url(#p.0)"><path fill="#000000" fill-opacity="0.0" d="m0 0l866.0 0l0 256.0l-866.0 0z" fill-rule="evenodd"></path><path fill="#000000" fill-opacity="0.0" d="m102.33613 94.007744c0 -27.422646 -6.942749 -56.958286 -23.602798 -78.8964" fill-rule="evenodd"></path><path stroke="#000000" stroke-width="2.0" stroke-linejoin="round" stroke-linecap="butt" d="m102.33613 94.007744c0 -27.422646 -6.942749 -56.958286 -23.602798 -78.8964" fill-rule="evenodd"></path><path fill="#000000" fill-opacity="0.0" d="m102.543 102.49458c0 -25.308334 -3.8372955 -51.684013 0 -75.925c0.93717957 -5.9203606 3.6694183 -10.26391 5.1279984 -15.792399" fill-rule="evenodd"></path><path stroke="#000000" stroke-width="2.0" stroke-linejoin="round" stroke-linecap="butt" d="m102.543 102.49458c0 -25.308334 -3.8372955 -51.684013 0 -75.925c0.93717957 -5.9203606 3.6694183 -10.26391 5.1279984 -15.792399" fill-rule="evenodd"></path><path fill="#000000" fill-opacity="0.0" d="m192.09448 45.90026l688.9134 0l0 175.40158l-688.9134 0z" fill-rule="evenodd"></path><path fill="#674ea7" d="m228.93823 93.14088l0 -11.296875l41.53125 0l0 86.53126q0 18.6875 -10.421875 30.609375q-10.421875 11.921875 -27.3125 11.921875l-1.59375 0q-14.015625 0 -26.84375 -10.921875l0 -16.6875q14.875 16.3125 27.4375 16.3125q12.578125 0 19.6875 -8.46875q7.109375 -8.46875 7.109375 -22.125l0 -75.87501l-29.59375 0zm95.79819 117.28126l-1.4375 0q-16.59375 0 -28.84375 -12.421875q-12.234375 -12.421875 -12.234375 -29.0q0 -16.578125 12.171875 -28.65625q12.171875 -12.09375 30.078125 -12.09375q17.921875 0 32.875 16.5625l-49.84375 49.21875q6.578125 5.25 15.140625 5.25q8.5625 0 15.4375 -3.984375q6.890625 -3.984375 17.515625 -19.71875l0 20.3125q-13.21875 14.53125 -30.859375 14.53125zm-1.609375 -71.046875q-11.40625 0 -20.28125 8.875q-8.859375 8.859375 -8.859375 20.34375q0 11.46875 5.3125 17.5l41.515625 -41.25q-6.28125 -5.46875 -17.6875 -5.46875zm75.49692 59.421875l0 11.140625q-16.015625 0 -25.015625 -8.546875q-9.0 -8.5625 -9.0 -21.8125l0 -97.73438l11.78125 0l0 97.73438q0 8.359375 5.5 13.796875q5.5 5.421875 16.734375 5.421875zm40.160004 0l0 11.140625q-16.015625 0 -25.015625 -8.546875q-9.0 -8.5625 -9.0 -21.8125l0 -97.73438l11.78125 0l0 97.73438q0 8.359375 5.5 13.796875q5.5 5.421875 16.734375 5.421875zm64.06625 -68.953125l11.78125 0l0 73.09375q0 15.609375 -10.90625 26.5q-10.890625 10.90625 -26.65625 10.90625q-18.9375 0 -30.734344 -15.546875l0.8125 -20.578125q9.8124695 16.796875 16.34372 20.890625q6.53125 4.09375 13.578125 4.09375q10.453125 0 18.109375 -7.59375q7.671875 -7.59375 7.671875 -18.203125l0.46875 0q-2.90625 6.859375 -24.5 6.859375q-14.65625 0 -25.078125 -10.328125q-10.4062195 -10.328125 -10.4062195 -24.84375l0 -45.25l11.7812195 0l0 45.25q0 9.65625 7.109375 16.84375q7.109375 7.1875 16.75 7.1875q9.65625 0 16.765625 -7.1875q7.109375 -7.1875 7.109375 -16.84375l0 -45.25z" fill-rule="nonzero"></path><path fill="#ff9900" d="m582.9434 115.1565q-9.484375 -17.375 -15.03125 -20.734375q-5.546875 -3.359375 -12.296875 -3.359375q-6.734375 0 -11.21875 3.96875q-4.484375 3.953125 -4.484375 10.9375l0 0.796875q0 8.421875 9.84375 15.734375q4.640625 3.390625 10.59375 6.8125076q5.96875 3.421875 12.109375 7.4375q6.15625 4.015625 11.375 8.734375q5.21875 4.703125 8.640625 11.734375q3.4375 7.03125 3.4375 15.46875l0 1.609375q0 16.703125 -11.359375 26.578125q-11.359375 9.859375 -27.8125 9.859375q-21.78125 0 -34.359375 -18.78125l0 -24.96875q10.140625 22.21875 17.40625 27.34375q7.28125 5.109375 18.125 5.109375q10.859375 0 18.609375 -6.765625q7.765625 -6.78125 7.765625 -18.0625l0 -0.953125q0 -7.046875 -3.71875 -12.984375q-3.71875 -5.9375 -9.65625 -9.96875q-5.921875 -4.03125 -13.265625 -8.65625q-7.328125 -4.625 -13.859375 -8.8125q-6.53125 -4.1875 -11.171875 -10.968758q-4.640625 -6.78125 -4.640625 -15.015625l0 -1.125q0 -12.765625 8.265625 -19.5625q8.28125 -6.796875 20.015625 -6.796875q16.34375 0 26.6875 13.046875l0 22.34375zm59.086304 95.10938q-16.765625 0 -28.78125 -12.4375q-12.0 -12.4375 -12.0 -29.0q0 -16.5625 12.171875 -28.65625q12.1875 -12.09375 29.3125 -12.09375q17.140625 0 29.234375 12.109375q12.109375 12.09375 12.109375 28.734375q0 16.640625 -11.84375 29.0q-11.828125 12.34375 -28.765625 12.34375l-1.4375 0zm30.265625 -41.015625q0 -12.15625 -8.71875 -21.09375q-8.71875 -8.9375 -20.765625 -8.9375q-12.03125 0 -20.90625 9.015625q-8.875 9.015625 -8.875 21.09375q0 12.0625 8.859375 20.9375q8.875 8.859375 21.0 8.859375q12.125 0 20.765625 -8.859375q8.640625 -8.859375 8.640625 -21.015625zm78.23505 -39.40625l11.78125 0l0 78.65625l-11.78125 0l0 -3.78125q-2.765625 5.546875 -24.5 5.546875q-14.84375 0 -24.9375 -10.265625q-10.078125 -10.265625 -10.078125 -24.90625l0 -45.25l11.78125 0l0 45.25q0 9.703125 6.796875 16.875q6.8125 7.15625 16.46875 7.15625q9.65625 0 17.0625 -7.203125q7.40625 -7.203125 7.40625 -16.828125l0 -45.25zm22.71814 110.65625l0 -110.65625l11.78125 0l-1.046875 11.125q-0.484375 -1.375 9.53125 -7.125q10.015625 -5.765625 20.828125 -5.765625q17.21875 0 29.3125 12.109375q12.09375 12.09375 12.09375 28.984375q0 16.890625 -12.09375 29.0q-12.09375 12.09375 -29.3125 12.09375q-10.46875 0 -20.390625 -5.65625q-9.921875 -5.65625 -9.703125 -6.859375l0.78125 42.75l-11.78125 0zm11.46875 -71.171875q0 12.0625 8.859375 20.9375q8.859375 8.859375 20.984375 8.859375q12.140625 0 20.765625 -8.859375q8.640625 -8.859375 8.640625 -21.015625q0 -12.15625 -8.71875 -21.09375q-8.71875 -8.9375 -20.765625 -8.9375q-12.03125 0 -20.90625 9.015625q-8.859375 9.015625 -8.859375 21.09375z" fill-rule="nonzero"></path><path fill="#000000" fill-opacity="0.0" d="m120.167076 174.79002c0 5.259842 -1.213913 22.455383 0 31.559052c1.213913 9.103683 3.8442688 18.409897 7.2834625 23.063004c3.4392014 4.6531067 8.698601 4.6531067 13.351707 4.8556366c4.6531067 0.20254517 10.723099 -0.20121765 14.566925 -3.6404114c3.8438416 -3.439209 7.080063 -11.3302765 8.496063 -16.994751c1.4160156 -5.6644897 0.6067352 -10.923019 0 -16.992126c-0.6067352 -6.0691223 -1.6172333 -13.960205 -3.6404114 -19.422577c-2.0231934 -5.462387 -4.6548615 -9.710419 -8.498688 -13.351715c-3.8438416 -3.6412811 -8.899826 -4.854767 -14.564301 -8.496063c-5.6644897 -3.6412811 -14.76947 -7.6872253 -19.422577 -13.3517c-4.6531067 -5.6644745 -7.282158 -10.519684 -8.496063 -20.63517c-1.213913 -10.115486 1.010498 -33.381454 1.2125931 -40.05774" fill-rule="evenodd"></path><path stroke="#674ea7" stroke-width="12.0" stroke-linejoin="round" stroke-linecap="butt" d="m120.167076 174.79002c0 5.259842 -1.213913 22.455383 0 31.559052c1.213913 9.103683 3.8442688 18.409897 7.2834625 23.063004c3.4392014 4.6531067 8.698601 4.6531067 13.351707 4.8556366c4.6531067 0.20254517 10.723099 -0.20121765 14.566925 -3.6404114c3.8438416 -3.439209 7.080063 -11.3302765 8.496063 -16.994751c1.4160156 -5.6644897 0.6067352 -10.923019 0 -16.992126c-0.6067352 -6.0691223 -1.6172333 -13.960205 -3.6404114 -19.422577c-2.0231934 -5.462387 -4.6548615 -9.710419 -8.498688 -13.351715c-3.8438416 -3.6412811 -8.899826 -4.854767 -14.564301 -8.496063c-5.6644897 -3.6412811 -14.76947 -7.6872253 -19.422577 -13.3517c-4.6531067 -5.6644745 -7.282158 -10.519684 -8.496063 -20.63517c-1.213913 -10.115486 1.010498 -33.381454 1.2125931 -40.05774" fill-rule="evenodd"></path><path fill="#000000" fill-opacity="0.0" d="m176.00525 88.608406c1.0113678 -4.2484665 5.461502 -15.577866 6.0682373 -25.490814c0.6067352 -9.912949 1.9265137 -25.649605 -2.4278107 -33.986877c-4.3543396 -8.337271 -16.257217 -13.5148735 -23.698166 -16.036747c-7.4409485 -2.5218716 -17.456253 0.75459385 -20.94751 0.90551186" fill-rule="evenodd"></path><path stroke="#674ea7" stroke-width="12.0" stroke-linejoin="round" stroke-linecap="butt" d="m176.00525 88.608406c1.0113678 -4.2484665 5.461502 -15.577866 6.0682373 -25.490814c0.6067352 -9.912949 1.9265137 -25.649605 -2.4278107 -33.986877c-4.3543396 -8.337271 -16.257217 -13.5148735 -23.698166 -16.036747c-7.4409485 -2.5218716 -17.456253 0.75459385 -20.94751 0.90551186" fill-rule="evenodd"></path><path fill="#000000" fill-opacity="0.0" d="m102.00127 121.501686c-1.0179367 -4.0660553 -4.078308 -16.082237 -6.1076126 -24.396324c-2.0293121 -8.314087 -3.8429565 -18.00306 -6.068245 -25.48819c-2.2252808 -7.4851227 -4.046364 -13.353455 -7.2834625 -19.422573c-3.2370987 -6.0691147 -7.283905 -12.33902 -12.139107 -16.992126c-4.8552094 -4.653105 -11.327648 -8.700785 -16.992126 -10.926508c-5.664482 -2.2257214 -11.329834 -3.6417313 -16.994751 -2.4278202c-5.664917 1.2139091 -12.746283 6.0695534 -16.994751 9.711285c-4.2484694 3.6417313 -6.8779526 6.6767273 -8.496063 12.139107c-1.6181107 5.4623795 -1.4151354 14.363956 -1.2125988 20.635174c0.20253754 6.2712173 0.80971146 11.530182 2.427822 16.992126c1.6181097 5.461937 3.6395445 9.912506 7.28084 15.779526c3.6412945 5.8670197 7.283901 12.544182 14.566929 19.42257c7.2830276 6.878395 17.712162 16.018806 29.131233 21.84777c11.419071 5.828964 32.819332 10.938324 39.383205 13.125992" fill-rule="evenodd"></path><path stroke="#674ea7" stroke-width="12.0" stroke-linejoin="round" stroke-linecap="butt" d="m102.00127 121.501686c-1.0179367 -4.0660553 -4.078308 -16.082237 -6.1076126 -24.396324c-2.0293121 -8.314087 -3.8429565 -18.00306 -6.068245 -25.48819c-2.2252808 -7.4851227 -4.046364 -13.353455 -7.2834625 -19.422573c-3.2370987 -6.0691147 -7.283905 -12.33902 -12.139107 -16.992126c-4.8552094 -4.653105 -11.327648 -8.700785 -16.992126 -10.926508c-5.664482 -2.2257214 -11.329834 -3.6417313 -16.994751 -2.4278202c-5.664917 1.2139091 -12.746283 6.0695534 -16.994751 9.711285c-4.2484694 3.6417313 -6.8779526 6.6767273 -8.496063 12.139107c-1.6181107 5.4623795 -1.4151354 14.363956 -1.2125988 20.635174c0.20253754 6.2712173 0.80971146 11.530182 2.427822 16.992126c1.6181097 5.461937 3.6395445 9.912506 7.28084 15.779526c3.6412945 5.8670197 7.283901 12.544182 14.566929 19.42257c7.2830276 6.878395 17.712162 16.018806 29.131233 21.84777c11.419071 5.828964 32.819332 10.938324 39.383205 13.125992" fill-rule="evenodd"></path><path fill="#000000" fill-opacity="0.0" d="m109.519684 92.25984c0.3587036 -5.0590515 1.1601028 -21.426071 2.1522293 -30.354332c0.99212646 -8.928257 1.6789169 -16.27034 3.8005295 -23.215221c2.121605 -6.9448814 5.0078735 -14.255905 8.929131 -18.454067c3.921257 -4.198164 12.165352 -5.612424 14.598427 -6.734909" fill-rule="evenodd"></path><path stroke="#674ea7" stroke-width="12.0" stroke-linejoin="round" stroke-linecap="butt" d="m109.519684 92.25984c0.3587036 -5.0590515 1.1601028 -21.426071 2.1522293 -30.354332c0.99212646 -8.928257 1.6789169 -16.27034 3.8005295 -23.215221c2.121605 -6.9448814 5.0078735 -14.255905 8.929131 -18.454067c3.921257 -4.198164 12.165352 -5.612424 14.598427 -6.734909" fill-rule="evenodd"></path><path fill="#e69138" d="m35.296577 94.08767l0 0c-13.16786 -23.300331 -14.979872 -47.19493 -4.047243 -53.370083l0 0c5.2500324 -2.9654121 12.79701 -1.3644714 20.980684 4.450634c8.183674 5.8151016 16.33368 15.368027 22.657112 26.557243l0 0c13.167862 23.300323 14.979874 47.194923 4.047241 53.37008l0 0c-10.932625 6.175148 -30.469933 -7.70755 -43.637794 -31.007874z" fill-rule="evenodd"></path><path stroke="#ffffff" stroke-width="1.0" stroke-linejoin="round" stroke-linecap="butt" d="m35.296577 94.08767l0 0c-13.16786 -23.300331 -14.979872 -47.19493 -4.047243 -53.370083l0 0c5.2500324 -2.9654121 12.79701 -1.3644714 20.980684 4.450634c8.183674 5.8151016 16.33368 15.368027 22.657112 26.557243l0 0c13.167862 23.300323 14.979874 47.194923 4.047241 53.37008l0 0c-10.932625 6.175148 -30.469933 -7.70755 -43.637794 -31.007874z" fill-rule="evenodd"></path><path fill="#e69138" d="m122.28742 66.74044l0 0c4.505249 -23.839565 18.155281 -41.26873 30.488182 -38.92913l0 0c5.9224854 1.1235142 10.742935 6.7487793 13.400925 15.638298c2.6580048 8.889519 2.9358063 20.315113 0.77230835 31.763275l0 0c-4.505249 23.83957 -18.155273 41.268738 -30.48819 38.92914l0 0c-12.332909 -2.3396072 -18.678474 -23.562012 -14.173225 -47.40158z" fill-rule="evenodd"></path><path stroke="#ffffff" stroke-width="1.0" stroke-linejoin="round" stroke-linecap="butt" d="m122.28742 66.74044l0 0c4.505249 -23.839565 18.155281 -41.26873 30.488182 -38.92913l0 0c5.9224854 1.1235142 10.742935 6.7487793 13.400925 15.638298c2.6580048 8.889519 2.9358063 20.315113 0.77230835 31.763275l0 0c-4.505249 23.83957 -18.155273 41.268738 -30.48819 38.92914l0 0c-12.332909 -2.3396072 -18.678474 -23.562012 -14.173225 -47.40158z" fill-rule="evenodd"></path><path fill="#e69138" d="m78.050644 204.40407l0 0c3.8703384 -11.854553 10.173607 -20.428131 14.078735 -19.149612l0 0c1.8753128 0.6139679 2.9354858 3.4642334 2.9473038 7.923752c0.011810303 4.4595337 -1.0257034 10.163025 -2.8843079 15.855774l0 0c-3.870346 11.854553 -10.173607 20.428131 -14.078743 19.149612l0 0c-1.8753128 -0.6139679 -2.9354858 -3.4642334 -2.9472961 -7.923752c-0.011817932 -4.4595337 1.0257034 -10.163025 2.8843079 -15.855774z" fill-rule="evenodd"></path><path stroke="#ffffff" stroke-width="1.0" stroke-linejoin="round" stroke-linecap="butt" d="m78.050644 204.40407l0 0c3.8703384 -11.854553 10.173607 -20.428131 14.078735 -19.149612l0 0c1.8753128 0.6139679 2.9354858 3.4642334 2.9473038 7.923752c0.011810303 4.4595337 -1.0257034 10.163025 -2.8843079 15.855774l0 0c-3.870346 11.854553 -10.173607 20.428131 -14.078743 19.149612l0 0c-1.8753128 -0.6139679 -2.9354858 -3.4642334 -2.9472961 -7.923752c-0.011817932 -4.4595337 1.0257034 -10.163025 2.8843079 -15.855774z" fill-rule="evenodd"></path><path fill="#e69138" d="m130.525 197.92677l0 0c-2.4961548 -13.57663 0.27474976 -25.464005 6.18898 -26.551178l0 0c2.8401184 -0.52207947 6.040085 1.5671844 8.89595 5.8081665c2.8558655 4.240967 5.1336975 10.286285 6.3323975 16.806015l0 0c2.4961548 13.57663 -0.27474976 25.464005 -6.18898 26.551178l0 0c-5.9142303 1.0871735 -12.732193 -9.037537 -15.228348 -22.614182z" fill-rule="evenodd"></path><path stroke="#ffffff" stroke-width="1.0" stroke-linejoin="round" stroke-linecap="butt" d="m130.525 197.92677l0 0c-2.4961548 -13.57663 0.27474976 -25.464005 6.18898 -26.551178l0 0c2.8401184 -0.52207947 6.040085 1.5671844 8.89595 5.8081665c2.8558655 4.240967 5.1336975 10.286285 6.3323975 16.806015l0 0c2.4961548 13.57663 -0.27474976 25.464005 -6.18898 26.551178l0 0c-5.9142303 1.0871735 -12.732193 -9.037537 -15.228348 -22.614182z" fill-rule="evenodd"></path><path fill="#000000" fill-opacity="0.0" d="m93.46457 150.51443c-2.629921 4.248474 -11.328964 16.791779 -15.779533 25.490814c-4.4505615 8.699036 -8.496056 19.01619 -10.923882 26.703415c-2.4278183 7.6872253 -3.6430435 13.35083 -3.6430435 19.419952c0 6.069107 0.0013122559 13.555542 3.6430435 16.994736c3.6417313 3.439209 12.340767 6.0682526 18.207352 3.6404266c5.866577 -2.427826 13.552933 -5.462372 16.992126 -18.207352c3.4391937 -12.744965 3.8451385 -39.853012 3.6430435 -58.262466c-0.20210266 -18.40944 -4.0463715 -43.495186 -4.855644 -52.19422" fill-rule="evenodd"></path><path stroke="#674ea7" stroke-width="12.0" stroke-linejoin="round" stroke-linecap="butt" d="m93.46457 150.51443c-2.629921 4.248474 -11.328964 16.791779 -15.779533 25.490814c-4.4505615 8.699036 -8.496056 19.01619 -10.923882 26.703415c-2.4278183 7.6872253 -3.6430435 13.35083 -3.6430435 19.419952c0 6.069107 0.0013122559 13.555542 3.6430435 16.994736c3.6417313 3.439209 12.340767 6.0682526 18.207352 3.6404266c5.866577 -2.427826 13.552933 -5.462372 16.992126 -18.207352c3.4391937 -12.744965 3.8451385 -39.853012 3.6430435 -58.262466c-0.20210266 -18.40944 -4.0463715 -43.495186 -4.855644 -52.19422" fill-rule="evenodd"></path></g></svg>

